<?xml version="1.0" encoding="UTF-8" standalone="no"?>
<svg
   version="1.1"
   viewBox="-5 -10 85 85"
   id="svg8"
   width="85"
   height="85"
   xmlns="http://www.w3.org/2000/svg"
   xmlns:svg="http://www.w3.org/2000/svg">
  <defs
     id="defs8" />
  <path
     id="path1"
     style="fill:#784421"
     d="m 66.255859,-9.6835937 c -5.069363,-0.1029713 -10.166037,2.9863281 -13.132812,8.0722656 -1.5625,-0.81252 -3.265675,-1.343755 -5.046875,-1.609375 -2.9375,-0.4375 -5.9688,-0.062475 -8.75,1.078125 -2.3281,0.9688 -4.35935,2.48437497 -6.03125,4.421875 -0.0625,0.0625 -0.125005,0.140625 -0.171875,0.234375 -1.4062,1.6563 -2.51562,3.625 -3.25,5.8125 L 23.201172,28.341797 c -4.9687,2.3126 -7.187525,6.859375 -9.515625,11.671875 -2.2809,4.687 -4.8593751,10.00005 -10.4843751,14.78125 -2.0312,1.7187 -4.2656499,3.2187 -6.65625,4.4375 h -0.044922 c -0.76563,0.3906 -1.062495,1.343755 -0.671875,2.109375 0.4063,0.76563 1.343755,1.062495 2.109375,0.671875 2.59379998,-1.3438 5.031275,-2.96875 7.234375,-4.84375 6.1403991,-5.187 8.8730971,-10.82815 11.2792971,-15.78125 2.3437,-4.8436 4.2031,-8.671925 8.5625,-10.453125 0.03125,-0.01562 0.07813,-0.03124 0.109375,-0.04687 4.375,-1.75003 8.484425,-0.406245 9.640625,0.04687 6.997166,2.750066 9.703547,11.968949 9.910156,18.015625 l -0.8125,-1.859375 c -0.34375,-0.78125 -1.2656,-1.156195 -2.0625,-0.796875 -0.79688,0.34375 -1.156195,1.2656 -0.796875,2.0625 v -0.01563 l 1.625,3.71875 c 0.25,0.59375 0.82812,0.9375 1.4375,0.9375 0.117081,0 0.239845,-0.01481 0.361328,-0.04297 -1.865783,11.713925 -13.113877,18.52265 -13.630859,18.824219 -0.60937,0.3594 -0.890625,1.07812 -0.703125,1.75 0.1719,0.68745 0.79688,1.15625 1.5,1.15625 h 34.90625 c 0.6563,0 1.23437,-0.406245 1.46875,-1.015625 3.7346,-9.968 0.640625,-22.968375 -9.484375,-39.734375 -0.4219,-0.6876 -0.765625,-1.34375 -1.046875,-1.96875 -0.03125,-0.04687 -0.0625,-0.10938 -0.09375,-0.15625 -3.12498,-6.6564 -0.109375,-9.703125 0.578125,-10.296875 l 0.01563,-0.01563 10.734375,-4.59375 c 0.01562,-0.01562 0.03125,-0.01562 0.04687,-0.03125 0.32812,-0.15625 0.59375,-0.40625 0.75,-0.71875 0.04688,-0.09375 0.07812,-0.1875 0.09375,-0.28125 0.09375,-0.29688 0.07813,-0.624995 -0.03125,-0.921875 -0.01563,-0.0625 -0.04687,-0.125 -0.0625,-0.1875 -0.04687,-0.0625 -0.07813,-0.140625 -0.125,-0.203125 -2.6406,-3.9375 -6.296925,-5.8593751 -7.828125,-6.5156251 -0.5781,-1.7188 -1.4375,-3.31255 -2.5,-4.71875 1.6562,-1.90625 2.39062,-1.9375 2.40625,-1.9375 0.14063,0.07812 0.48437,0.640625 0.65625,0.953125 0.5156,0.8907 1.2969,2.21875 2.875,2.21875 h 0.03125 c 0.8906,-0.01563 1.484375,-0.453125 1.953125,-0.796875 0.3593,-0.26562 0.75,-0.546875 1.40625,-0.765625 0.04687,0.23438 0.09376,0.48438 0.140625,0.6875 0.2344,1.2031 0.5312,2.6875 1.75,3.65625 0.75,0.59375 1.7813,0.90625 2.9375,0.90625 0.5,0 1,-0.062495 1.53125,-0.171875 1.875,-0.4063 3.42188,-1.453075 4.125,-2.796875 0.84372,-1.625 0.656225,-4.00005 -0.546875,-6.53125 -1.4844,-3.1406 -4.953175,-7.1719 -9.859375,-8.1875 -0.716813,-0.1484375 -1.439868,-0.2294305 -2.164063,-0.2441406 z m -0.128906,3.109375 c 0.563903,0.00723 1.126956,0.066406 1.683594,0.1816406 3.7657,0.7813 6.484375,3.96875 7.671875,6.46874998 0.84376,1.78120002 0.921875,3.15625002 0.609375,3.75000002 -0.2656,0.51562 -1.078125,0.98438 -2.015625,1.1875 -0.875,0.1875 -1.625,0.07812 -1.875,-0.125 -0.3125,-0.25 -0.5,-1.15625 -0.625,-1.8125 -0.25,-1.2344 -0.578175,-2.90625002 -2.234375,-3.31250002 -0.5781,-0.14062 -1.062495,-5e-6 -1.671875,0.171875 -1.2969,0.39061999 -2.0625,0.9375 -2.5625,1.31250002 -0.09375,-0.14063 -0.20312,-0.32813002 -0.28125,-0.46875002 -0.5,-0.8593 -1.171825,-2.01562998 -2.515625,-2.40624998 h 0.01563 c -1.9532,-0.5625 -3.859375,0.95309997 -5.359375,2.62499998 -0.37495,-0.34375 -0.76563,-0.67187 -1.15625,-0.96875 2.365212,-4.12894998 6.369087,-6.65415078 10.316406,-6.60351558 z M 36.107422,3.7949219 c 0.3594,2 1.875,8.0781001 7.0625,11.0000001 0.60938,0.3438 0.906255,1.0625 0.734375,1.75 -0.0938,0.39 -2.078,8.95315 9.5,13.53125 0.3281,1.1719 0.828125,2.453125 1.546875,3.828125 -14.15625,-4.235 -14.57812,-13.64065 -14.25,-16.96875 -4.031151,-2.671801 -6.015589,-6.781226 -6.96875,-9.7500001 0.640585,-1.2655322 1.437542,-2.4062891 2.375,-3.390625 z m 11.703125,2.3125 h 0.01563 c 0.875,0 1.5625,0.70312 1.5625,1.5625 0,0.85938 -0.718745,1.5625 -1.578125,1.5625 -0.85938,0 -1.5625,-0.70312 -1.5625,-1.5625 0,-0.85938 0.70312,-1.5625 1.5625,-1.5625 z m 12.734375,4.9062501 c 0.8281,0.375 2.2656,1.156225 3.75,2.453125 l -6.125,-0.6875 z m -3.78125,4.765625 5.28125,0.578125 -4.109375,1.765625 z M 34.626953,46.15625 c -0.203859,0.0044 -0.41015,0.04884 -0.609375,0.138672 v -0.01563 c -0.79688,0.34375 -1.156195,1.2656 -0.796875,2.0625 l 1.625,3.71875 c 0.25,0.59375 0.82812,0.9375 1.4375,0.9375 0.20312,0 0.42188,-0.04687 0.625,-0.125 0.79688,-0.34375 1.156195,-1.2656 0.796875,-2.0625 l -1.625,-3.71875 c -0.257813,-0.59766 -0.841549,-0.948723 -1.453125,-0.935547 z" />
</svg>
